<?xml version="1.0" encoding="utf-8"?>
<!-- Generator: Adobe Illustrator 24.1.2, SVG Export Plug-In . SVG Version: 6.00 Build 0)  -->
<svg version="1.1" id="Layer_1" xmlns="http://www.w3.org/2000/svg" xmlns:xlink="http://www.w3.org/1999/xlink" x="0px" y="0px"
	 viewBox="0 0 329.9 84.4" style="enable-background:new 0 0 329.9 84.4;" xml:space="preserve">
<g>
	<g>
		<g>
			<g>
				<path d="M47.3,28.7v6.9c0,8.5-4.1,13.2-12.5,13.2h-4v20.1h-8.4V15.5h12.4C43.2,15.5,47.3,20.1,47.3,28.7z M30.8,23.1v18.1h4
					c2.7,0,4.1-1.2,4.1-5v-8c0-3.8-1.5-5-4.1-5H30.8z"/>
			</g>
			<g>
				<path d="M66.5,15.5h8.4v53.4h-8.4V15.5z"/>
			</g>
			<g>
				<path d="M103.7,30.2v38.7h-7.6V15.5h10.5l8.6,32v-32h7.5v53.4h-8.6L103.7,30.2z"/>
			</g>
			<g>
				<path d="M152.5,68.9h-8.4V15.5h8.4v22.9h9.5V15.5h8.5v53.4H162V46h-9.5V68.9z"/>
			</g>
			<g>
				<path d="M200.4,38h11.5v7.6h-11.5v15.6h14.5v7.6H192V15.5h22.9v7.6h-14.5V38z"/>
			</g>
			<g>
				<path d="M262.5,68.9H254l-1.5-9.7h-10.3l-1.5,9.7h-7.7l8.5-53.4h12.3L262.5,68.9z M243.3,52h8.1l-4-27L243.3,52z"/>
			</g>
			<g>
				<path d="M281.6,15.5h13.3c8.4,0,12.5,4.7,12.5,13.2v27c0,8.5-4.1,13.2-12.5,13.2h-13.3V15.5z M290,23.1v38.2h4.7
					c2.7,0,4.3-1.4,4.3-5.2V28.3c0-3.8-1.6-5.2-4.3-5.2H290z"/>
			</g>
		</g>
		<g>
			<path d="M329.9,84.4H0V0h329.9V84.4z M7.3,77h315.2V7.3H7.3V77z"/>
		</g>
	</g>
</g>
</svg>
